<?xml version="1.0" standalone="no"?>
<!DOCTYPE svg PUBLIC "-//W3C//DTD SVG 20010904//EN"
 "http://www.w3.org/TR/2001/REC-SVG-20010904/DTD/svg10.dtd">
<svg version="1.0" xmlns="http://www.w3.org/2000/svg"
 width="1080.000000pt" height="1080.000000pt" viewBox="0 0 1080.000000 1080.000000"
 preserveAspectRatio="xMidYMid meet">

<g transform="translate(0.000000,1080.000000) scale(0.100000,-0.100000)"
fill="#000000" stroke="none">
<path d="M0 5400 l0 -5400 5400 0 5400 0 0 5400 0 5400 -5400 0 -5400 0 0
-5400z m3770 -6 c0 -877 -2 -994 -15 -994 -13 0 -15 117 -15 993 0 547 3 997
6 1000 4 4 11 4 15 1 5 -3 9 -453 9 -1000z m-1420 -17 c0 -17 -92 -113 -549
-579 l-126 -128 23 -22 22 -23 398 398 399 398 60 -12 c105 -22 120 -13 321
184 187 185 203 204 176 214 -11 4 -53 -31 -148 -126 -72 -72 -135 -131 -141
-131 -15 0 -75 63 -75 79 0 9 59 75 132 148 105 105 130 135 120 145 -10 10
-40 -15 -145 -120 -73 -73 -140 -132 -149 -132 -15 0 -78 63 -78 78 0 4 59 66
130 137 120 120 152 165 116 165 -8 0 -95 -85 -195 -189 -197 -207 -200 -212
-187 -317 5 -45 3 -56 -10 -61 -45 -17 -68 89 -39 178 16 48 38 74 213 252
136 137 203 197 218 197 27 0 74 -53 74 -82 0 -14 -46 -68 -127 -149 -70 -71
-124 -132 -120 -136 4 -4 65 50 136 120 87 87 135 127 150 127 26 0 81 -51 81
-75 0 -16 -47 -71 -184 -212 -38 -40 -66 -76 -62 -80 4 -4 63 49 131 120 135
139 154 149 200 102 50 -49 42 -62 -167 -272 -221 -222 -234 -230 -351 -220
l-73 6 -393 -399 c-226 -230 -400 -400 -410 -400 -18 0 -111 91 -111 109 0 5
153 166 339 357 l339 349 -98 105 c-177 189 -539 544 -547 536 -4 -4 -9 -41
-11 -82 -4 -69 -1 -81 29 -142 27 -55 67 -101 247 -284 204 -207 215 -220 198
-236 -16 -16 -29 -5 -240 208 -130 131 -232 242 -244 267 -33 65 -52 125 -52
168 0 62 36 168 64 188 14 10 715 -701 716 -726z m3175 418 c50 -50 17 -125
-56 -125 -43 0 -79 35 -79 77 0 34 42 73 80 73 19 0 40 -9 55 -25z m-624 -22
c141 -80 146 -273 8 -372 l-38 -28 75 -133 c41 -74 88 -158 105 -187 l31 -54
-62 3 -62 3 -93 170 -92 170 -67 3 -66 3 0 -176 0 -175 -55 0 -55 0 0 395 0
395 23 5 c56 12 79 13 183 11 103 -2 114 -4 165 -33z m2529 -123 l0 -70 155 0
155 0 0 -40 0 -40 -156 0 -155 0 3 -167 c3 -183 10 -209 61 -247 44 -32 137
-29 201 7 52 29 55 28 74 -16 11 -26 10 -29 -21 -47 -90 -55 -222 -65 -302
-24 -90 47 -114 123 -115 362 l0 132 -65 0 -65 0 0 40 0 40 65 0 64 0 3 57 c3
54 4 57 38 69 59 21 60 20 60 -56z m690 0 l0 -70 155 0 155 0 0 -40 0 -40
-155 0 -155 0 0 -162 c0 -180 8 -212 63 -252 44 -32 139 -28 201 8 26 15 49
26 50 24 11 -12 26 -49 26 -62 0 -8 -26 -27 -57 -43 -51 -25 -69 -28 -150 -28
-86 0 -94 2 -135 30 -23 17 -54 51 -68 75 -24 43 -25 55 -28 228 l-4 182 -64
0 -64 0 0 40 0 40 65 0 65 0 0 59 0 59 38 10 c63 17 62 18 62 -58z m-1787 -85
l47 -17 0 -84 0 -84 -45 0 -45 0 0 54 0 55 -56 11 c-90 19 -177 -3 -223 -55
-87 -99 -56 -281 56 -337 67 -32 177 -32 248 2 28 13 54 24 58 24 4 1 17 -13
28 -31 l20 -32 -46 -26 c-65 -39 -128 -55 -210 -55 -189 0 -293 95 -303 277
-6 113 16 182 79 245 64 64 114 79 244 74 59 -2 119 -11 148 -21z m620 9 c55
-19 108 -75 125 -131 6 -21 14 -66 18 -100 l7 -63 -228 0 -228 0 7 -42 c15
-95 72 -151 168 -164 50 -7 141 15 197 47 36 21 36 21 62 -24 14 -25 1 -39
-74 -73 -56 -26 -72 -29 -167 -29 -123 0 -164 16 -224 87 -50 58 -70 129 -64
232 7 134 72 228 178 261 61 19 167 18 223 -1z m-1433 -244 l0 -250 100 0 100
0 0 -40 0 -40 -250 0 -250 0 0 40 0 40 100 0 100 0 0 210 0 210 -100 0 -100 0
0 40 0 40 150 0 150 0 0 -250z m3476 231 c25 -12 50 -33 65 -57 23 -37 24 -48
25 -199 1 -247 -3 -225 44 -225 l40 0 0 -40 0 -40 -79 0 -79 0 -6 35 c-8 41
-16 43 -42 14 -53 -60 -175 -77 -254 -36 -58 29 -80 62 -86 128 -8 76 24 134
91 169 44 22 61 25 162 25 l113 0 0 52 c0 99 -65 131 -200 100 -36 -9 -73 -19
-82 -22 -12 -5 -21 2 -33 24 -9 18 -13 36 -10 41 5 8 74 33 120 43 55 13 172
6 211 -12z m-6233 -599 c158 -158 287 -293 287 -300 0 -15 -67 -90 -93 -104
-17 -9 -52 22 -299 268 -154 154 -284 287 -290 298 -7 14 -6 22 7 35 15 15 36
-4 291 -263 l276 -279 20 21 21 21 -273 280 c-230 238 -271 283 -260 296 7 8
15 15 19 15 4 0 136 -130 294 -288z m1007 -900 c0 -4 -9 -40 -20 -80 -25 -89
-25 -86 2 -68 44 31 91 13 104 -40 10 -38 -15 -109 -53 -154 -31 -35 -40 -40
-78 -40 -34 0 -47 5 -59 22 -23 32 -20 58 19 201 19 70 35 134 35 142 0 7 -12
16 -27 18 -16 2 -4 5 25 6 28 0 52 -2 52 -7z m880 -3 c0 -5 -11 -50 -25 -99
-31 -112 -31 -124 0 -77 43 63 105 59 105 -7 0 -17 -12 -58 -25 -91 -41 -99
-24 -132 24 -46 23 42 38 50 27 13 -12 -37 -47 -72 -71 -72 -49 0 -54 53 -15
144 34 78 35 88 8 84 -27 -4 -77 -81 -110 -170 -15 -42 -26 -58 -39 -58 -11 0
-19 2 -19 5 0 3 20 78 44 167 58 215 57 201 21 209 -24 5 -20 7 23 8 30 1 52
-3 52 -10z m1594 -16 c-4 -16 -13 -48 -20 -73 -20 -66 -19 -74 8 -56 77 54
134 -45 83 -144 -32 -64 -64 -90 -111 -90 -33 0 -46 5 -58 22 -23 32 -20 62
19 205 19 70 35 133 35 140 0 6 -12 14 -27 16 -16 2 -4 5 25 6 52 1 52 1 46
-26z m1056 20 c0 -5 -20 -84 -45 -178 -25 -93 -45 -173 -45 -177 0 -5 6 -8 14
-8 8 0 22 18 32 40 10 22 21 40 26 40 13 0 9 -12 -15 -55 -18 -32 -29 -41 -55
-43 -27 -3 -32 0 -34 20 -2 42 3 72 37 193 46 164 45 158 10 166 -24 5 -20 7
23 8 28 0 52 -2 52 -6z m-5808 -144 l3 -140 75 138 75 138 70 1 c39 1 55 -1
38 -3 -28 -4 -34 -10 -42 -41 -52 -195 -81 -304 -81 -308 0 -2 11 -4 25 -4 14
0 25 -4 25 -10 0 -6 -33 -10 -80 -10 -44 0 -80 4 -80 9 0 5 12 11 27 13 26 3
29 9 70 162 23 88 41 161 40 163 -2 1 -46 -75 -98 -169 -53 -95 -101 -174
-107 -176 -8 -2 -12 47 -14 184 l-3 187 -43 -162 c-24 -90 -41 -169 -38 -177
3 -8 15 -14 26 -14 11 0 20 -4 20 -10 0 -6 -32 -10 -75 -10 -43 0 -75 4 -75
10 0 6 11 10 24 10 13 0 29 7 36 15 11 13 90 295 90 322 0 6 -12 14 -27 16
-16 2 5 5 44 6 l72 1 3 -141z m1266 108 c3 -23 0 -27 -21 -27 -29 0 -43 26
-26 47 18 21 44 11 47 -20z m842 18 c17 -20 5 -45 -20 -45 -23 0 -35 22 -26
45 7 19 30 19 46 0z m2920 0 c17 -21 5 -45 -24 -45 -28 0 -37 17 -24 43 11 21
31 22 48 2z m618 -18 c3 -23 0 -27 -23 -27 -30 0 -43 24 -25 46 19 22 45 13
48 -19z m462 21 c0 -7 -7 -38 -15 -68 -8 -30 -15 -56 -15 -57 0 -2 15 -4 33
-4 l32 -2 -35 -6 c-33 -6 -35 -8 -57 -86 -26 -91 -29 -128 -10 -123 6 2 21 22
32 44 14 28 20 34 23 21 2 -9 -5 -32 -15 -50 -14 -24 -27 -33 -51 -35 -27 -3
-32 1 -38 23 -4 16 2 60 15 108 25 98 25 94 4 100 -14 4 -14 5 3 6 17 1 25 13
39 64 9 34 19 65 22 70 7 12 33 8 33 -5z m1670 0 c0 -7 -7 -38 -15 -68 -8 -30
-15 -56 -15 -57 0 -2 15 -4 33 -4 l32 -2 -35 -6 c-33 -6 -35 -9 -56 -81 -26
-87 -30 -134 -11 -128 6 2 21 22 32 44 14 28 20 34 23 21 2 -9 -5 -32 -15 -50
-16 -26 -25 -32 -54 -32 -31 0 -34 3 -37 31 -2 17 6 64 17 105 25 89 25 86 4
92 -14 4 -14 5 3 6 17 1 24 11 33 45 18 71 30 96 46 96 8 0 15 -6 15 -12z
m-7346 -140 c13 -18 16 -19 16 -5 0 10 8 17 20 17 22 0 24 -10 10 -60 -32
-116 -38 -160 -24 -160 7 0 23 18 34 41 21 41 37 48 26 11 -20 -62 -91 -98
-103 -52 -3 11 -8 20 -12 20 -4 0 -14 -9 -24 -20 -23 -27 -82 -27 -97 -1 -15
28 -12 96 5 137 34 81 116 120 149 72z m227 -5 c5 -14 8 -32 5 -40 -3 -7 -1
-13 4 -13 5 0 11 9 15 20 8 25 52 60 77 60 10 0 24 -11 30 -26 11 -22 8 -38
-15 -103 -15 -42 -27 -85 -27 -95 0 -29 23 -13 45 32 11 22 23 41 28 42 12 0
8 -13 -16 -55 -18 -32 -29 -41 -54 -43 -28 -3 -33 0 -39 25 -5 19 0 47 15 88
32 84 37 115 19 115 -8 0 -22 -8 -30 -17 -26 -29 -75 -125 -89 -170 -9 -31
-18 -43 -31 -43 -23 0 -23 -4 8 118 15 56 24 105 21 109 -11 10 -36 -17 -49
-52 -6 -19 -15 -32 -20 -29 -9 6 16 59 40 87 22 25 51 21 63 -10z m371 10 c11
-9 18 -11 18 -5 0 7 9 12 20 12 11 0 20 -3 20 -6 0 -14 -72 -259 -82 -278 -20
-40 -62 -76 -95 -82 -60 -11 -108 43 -67 76 21 18 55 -13 36 -32 -19 -19 -14
-28 13 -28 41 0 73 41 91 118 7 26 6 27 -13 10 -11 -10 -34 -18 -51 -18 -64 0
-79 78 -32 170 37 72 101 100 142 63z m198 -9 c12 -30 6 -58 -27 -137 -13 -32
-21 -62 -18 -67 10 -17 32 1 50 41 10 21 22 39 27 39 13 0 10 -10 -17 -57 -21
-35 -31 -43 -54 -43 -49 0 -54 49 -16 140 14 33 25 66 25 75 0 29 -27 15 -46
-25 -17 -36 -34 -52 -34 -32 0 11 41 76 54 84 22 15 47 7 56 -18z m230 11 c9
-11 16 -13 24 -5 5 5 18 10 27 10 15 0 15 -8 -7 -92 -13 -51 -24 -104 -24
-117 0 -21 2 -22 17 -10 9 8 23 30 31 49 8 19 17 30 19 23 5 -14 -20 -65 -41
-82 -23 -20 -60 -10 -64 17 l-3 23 -20 -26 c-25 -31 -84 -35 -105 -7 -35 45 6
185 63 216 36 20 67 20 83 1z m454 -7 c9 -12 16 -28 16 -35 0 -19 -29 -43 -46
-36 -15 6 -15 17 1 56 10 24 -27 23 -49 -2 -38 -42 -63 -180 -35 -196 21 -13
59 6 84 42 18 28 25 33 25 18 0 -34 -49 -75 -90 -75 -95 0 -107 135 -20 214
48 43 90 48 114 14z m154 10 c19 -19 14 -73 -13 -134 -42 -96 -24 -131 24 -45
23 42 38 50 27 13 -21 -64 -84 -94 -106 -51 -13 24 -8 50 26 137 14 35 23 66
20 69 -12 12 -38 -9 -52 -42 -8 -19 -19 -35 -24 -35 -12 0 14 55 38 83 18 20
43 22 60 5z m519 -10 c28 -32 34 -65 21 -116 -16 -63 -67 -112 -116 -112 -43
0 -55 7 -71 37 -55 106 90 274 166 191z m387 6 c22 -21 20 -61 -3 -73 -29 -16
-50 13 -27 37 23 26 20 34 -11 30 -22 -2 -33 -13 -50 -48 -64 -129 -20 -227
58 -130 37 46 48 46 25 1 -20 -37 -44 -51 -90 -51 -44 0 -66 29 -66 88 0 56
20 102 59 135 37 30 81 35 105 11z m504 4 c36 -36 -9 -103 -76 -114 -36 -6
-41 -10 -47 -40 -7 -41 9 -74 35 -74 21 0 44 19 72 60 13 19 17 21 17 8 1 -9
-11 -30 -25 -47 -21 -25 -34 -31 -64 -31 -73 0 -101 77 -60 167 29 65 113 106
148 71z m379 -17 c15 -30 1 -61 -27 -61 -21 0 -28 34 -10 45 18 11 10 25 -14
25 -31 0 -52 -33 -72 -111 -31 -121 28 -151 98 -49 13 19 17 21 17 8 1 -9 -11
-30 -25 -47 -21 -25 -34 -31 -64 -31 -73 0 -101 77 -60 167 34 77 129 109 157
54z m209 12 c13 -13 19 -14 22 -5 2 6 13 12 24 12 16 0 19 -4 14 -22 -28 -102
-48 -190 -43 -195 10 -9 34 15 47 47 15 36 34 41 20 5 -20 -52 -42 -75 -70
-75 -20 0 -31 6 -35 21 l-7 21 -22 -21 c-30 -28 -80 -28 -100 1 -32 46 -11
135 44 190 42 42 78 49 106 21z m234 -30 l5 -41 25 39 c40 65 100 62 100 -5
l0 -31 27 38 c45 63 103 59 103 -8 0 -17 -11 -59 -25 -93 -14 -34 -25 -69 -25
-78 0 -27 24 -10 49 35 23 42 38 50 27 13 -21 -66 -87 -96 -106 -48 -10 27 0
71 30 138 26 57 25 70 -2 66 -27 -4 -78 -83 -110 -170 -15 -43 -26 -58 -40
-58 -14 0 -18 5 -14 18 15 52 46 183 46 196 0 28 -28 17 -51 -20 -12 -20 -37
-71 -55 -113 -18 -42 -40 -77 -49 -79 -20 -5 -19 2 11 119 14 56 23 103 21
106 -10 9 -27 -8 -48 -49 -23 -45 -35 -46 -19 -2 16 42 51 75 75 72 15 -2 21
-12 25 -45z m691 26 c13 -25 5 -73 -21 -131 -38 -84 -15 -121 25 -40 11 22 23
41 28 42 12 0 8 -13 -16 -55 -18 -32 -29 -41 -54 -43 -28 -3 -33 0 -39 25 -5
19 0 47 15 88 29 78 36 115 22 115 -10 0 -44 -47 -55 -75 -2 -5 -6 -7 -10 -3
-9 8 9 45 37 76 26 28 53 28 68 1z m235 4 c13 -13 19 -14 22 -5 2 6 13 12 24
12 14 0 18 -5 14 -17 -18 -62 -46 -180 -46 -196 0 -17 2 -17 16 -6 8 7 24 29
34 48 13 25 19 30 20 17 0 -10 -9 -34 -21 -52 -25 -41 -73 -48 -84 -13 l-7 21
-22 -21 c-30 -28 -80 -28 -100 1 -32 46 -11 135 44 190 42 42 78 49 106 21z
m385 -10 c10 -27 2 -62 -42 -170 -7 -18 -10 -35 -6 -39 10 -10 43 23 57 57 15
35 33 39 20 4 -21 -56 -42 -76 -74 -73 -28 3 -31 7 -34 39 -2 23 7 61 22 100
15 34 26 68 26 76 0 28 -29 11 -47 -27 -17 -37 -42 -58 -29 -24 3 9 6 19 6 23
0 5 11 20 25 35 32 34 62 34 76 -1z m647 15 c19 -19 14 -74 -13 -138 -27 -64
-31 -90 -15 -90 30 0 86 85 121 185 13 37 23 51 40 53 17 3 20 0 15 -13 -12
-33 -46 -174 -46 -194 0 -34 18 -24 41 22 12 23 24 37 26 30 5 -14 -20 -65
-41 -82 -8 -7 -25 -11 -38 -9 -19 2 -24 10 -26 41 l-3 38 -30 -41 c-26 -35
-34 -41 -62 -38 -30 3 -32 6 -35 45 -2 27 5 61 22 102 30 70 31 81 11 81 -8 0
-26 -21 -39 -47 -14 -27 -25 -40 -26 -30 0 37 42 97 70 97 9 0 21 -5 28 -12z
m382 2 c54 -29 45 -147 -15 -207 -65 -65 -155 -33 -155 56 1 104 98 190 170
151z m392 -7 c11 -9 18 -11 18 -5 0 7 9 12 20 12 11 0 20 -3 20 -7 0 -18 -68
-251 -80 -273 -22 -44 -63 -80 -97 -86 -60 -11 -108 43 -68 76 22 18 48 -5 35
-30 -15 -27 -13 -30 19 -30 33 0 59 30 79 89 17 47 15 57 -6 38 -27 -25 -78
-22 -96 5 -21 30 -20 56 5 122 33 90 104 132 151 89z m198 -9 c12 -30 6 -57
-27 -138 -17 -41 -21 -62 -14 -69 23 -23 93 78 126 181 13 38 22 52 36 52 24
0 24 3 -6 -105 -14 -50 -25 -98 -25 -108 0 -28 23 -15 45 26 23 43 40 50 22
10 -24 -55 -41 -73 -68 -73 -28 0 -39 15 -39 53 0 19 -4 16 -31 -16 -22 -27
-38 -37 -59 -37 -48 0 -53 48 -15 142 28 69 31 88 12 88 -7 0 -24 -21 -36 -47
-13 -27 -26 -43 -28 -36 -5 14 20 64 42 87 25 24 54 20 65 -10z m368 9 c32
-28 33 -73 3 -73 -26 0 -36 17 -21 35 6 8 9 19 5 25 -9 14 -58 13 -73 -2 -22
-22 -13 -43 33 -81 51 -43 57 -69 24 -111 -39 -50 -149 -29 -149 29 0 30 27
52 42 37 9 -9 8 -18 -2 -37 -12 -23 -12 -28 0 -35 35 -22 100 1 100 35 0 7
-20 30 -45 53 -52 48 -58 80 -20 117 29 30 74 33 103 8z m402 7 c54 -29 45
-147 -15 -207 -44 -44 -103 -47 -134 -7 -71 90 52 266 149 214z"/>
<path d="M4663 5724 c-23 -5 -23 -8 -23 -151 l0 -146 79 5 c92 5 138 27 163
78 37 73 13 162 -53 196 -33 16 -126 26 -166 18z"/>
<path d="M6777 5499 c-21 -5 -48 -16 -59 -23 -29 -21 -58 -67 -58 -93 0 -23 0
-23 170 -23 170 0 170 0 170 23 0 33 -35 84 -69 102 -40 20 -106 26 -154 14z"/>
<path d="M8797 5246 c-49 -18 -64 -32 -72 -66 -12 -55 40 -110 104 -110 40 0
94 24 126 56 29 29 35 42 35 78 0 42 -1 44 -37 50 -59 9 -114 6 -156 -8z"/>
<path d="M3746 3879 c-35 -42 -62 -134 -47 -165 15 -33 36 -30 64 9 31 42 47
89 47 143 0 37 -3 44 -19 44 -11 0 -31 -14 -45 -31z"/>
<path d="M6242 3903 c-19 -8 -62 -98 -68 -146 -5 -33 -2 -46 11 -57 24 -20 45
-4 78 61 44 85 32 164 -21 142z"/>
<path d="M1834 3856 c-14 -30 -27 -77 -31 -105 -5 -43 -3 -52 12 -57 27 -11
71 44 91 111 20 71 13 105 -22 105 -21 0 -29 -9 -50 -54z"/>
<path d="M2444 3886 c-38 -59 -59 -176 -34 -191 36 -22 103 92 98 167 -2 35
-7 44 -25 46 -14 2 -27 -5 -39 -22z"/>
<path d="M2888 3893 c-34 -39 -65 -146 -53 -182 22 -71 122 70 113 161 -4 39
-35 50 -60 21z"/>
<path d="M3982 3878 c-29 -49 -47 -139 -33 -166 25 -47 72 -12 96 72 9 31 15
70 13 88 -2 27 -8 34 -29 36 -21 2 -31 -4 -47 -30z"/>
<path d="M4880 3878 c-11 -18 -20 -39 -20 -45 0 -20 48 -15 70 7 11 11 20 31
20 45 0 39 -45 34 -70 -7z"/>
<path d="M5484 3886 c-38 -59 -59 -176 -34 -191 36 -22 92 71 94 155 1 49 -1
55 -21 58 -14 2 -27 -5 -39 -22z"/>
<path d="M6652 3897 c-45 -54 -72 -207 -37 -207 64 0 130 209 69 218 -11 2
-26 -3 -32 -11z"/>
<path d="M8041 3871 c-48 -92 -47 -186 1 -179 36 5 71 79 72 152 1 59 0 61
-26 64 -23 3 -30 -3 -47 -37z"/>
<path d="M8446 3887 c-60 -90 -60 -236 0 -186 39 32 77 147 63 187 -11 29 -44
28 -63 -1z"/>
<path d="M9394 3856 c-19 -42 -24 -68 -22 -108 3 -49 5 -53 28 -53 38 0 73 71
74 149 1 59 0 61 -27 64 -25 3 -30 -2 -53 -52z"/>
</g>
</svg>
